:SAMPLES-PER-SECOND 30
:FULLY-SPECIFIED
:DEGREES
313
root  -3.87681 41.6681 0.136803 -103.408 -88.4203 99.9434
RightUpLeg  -22.6006 3.3948 -0.522129
RightLeg  46.4337 -10.3621 -11.8591
RightFoot  9.38083 -1.20295 6.66409
RightToes  7.56698e-010 0 -3.6325e-017
Spine  14.0794 -1.94607 2.74711
Spine1  5.22142 -2.5351 2.79379
HEad  -6.43441 -13.5981 -8.13615
LeftShoulder1  3.39726 -9.81378 -18.9909
LeftArm  -26.3385 -26.844 -49.2501
LeftForeArm  63.0878 -78.2844 -58.1352
LeftHand  -1.11156 -1.02347 20.1621
RightShoulder  1.57128 4.5693 12.4444
RightArm  -37.8928 41.2194 50.9693
RightForeArm  2.48167 10.2556 3.06028
RightHand  -2.42588 9.33834 -19.2899
LeftUpLeg  -2.11027 -4.23185 -7.74761
LeftLeg  32.3935 -0.456503 0.0134134
LeftFoot  4.42279 1.48311 -11.0559
LeftToes  -3.13779e-010 -2.47553e-011 -5.36621e-011
314
root  -4.39093 41.0134 0.616931 -175.937 -83.8882 173.094
RightUpLeg  -27.7349 5.07762 0.708327
RightLeg  40.7307 -4.95294 -4.78483
RightFoot  12.5927 -4.11883 19.6514
RightToes  7.56698e-010 0 -3.6325e-017
Spine  12.3466 -1.13896 2.35133
Spine1  4.1883 -1.92852 3.7269
HEad  -5.92007 -9.24729 -12.636
LeftShoulder1  3.14344 -9.18215 -18.2045
LeftArm  -31.3628 -28.2447 -45.5533
LeftForeArm  132.232 -77.1895 -129.456
LeftHand  -0.778489 0.892008 20.0763
RightShoulder  1.65024 4.73522 13.0685
RightArm  -32.3545 38.5146 51.5837
RightForeArm  3.48732 19.8354 5.13687
RightHand  -2.5232 9.78537 -19.4689
LeftUpLeg  5.10882 -4.00458 -9.26256
LeftLeg  29.7251 3.21845 2.27288
LeftFoot  2.18051 0.699605 -6.06416
LeftToes  -3.13779e-010 -2.47553e-011 -5.36621e-011
315
root  -5.12937 39.9432 0.892509 -167.985 -80.5948 166.425
RightUpLeg  -31.34 5.36792 2.11508
RightLeg  37.2715 -3.05612 -2.71514
RightFoot  15.711 -5.49671 23.1943
RightToes  7.56698e-010 0 -3.6325e-017
Spine  9.59046 -1.3439 -0.677151
Spine1  2.87779 -2.95365 7.31064
HEad  -5.82294 -2.94529 -16.8417
LeftShoulder1  2.82292 -8.245 -17.3886
LeftArm  -37.606 -27.6324 -39.9447
LeftForeArm  153.872 -67.4184 -154.978
LeftHand  -0.56947 2.26319 20.9838
RightShoulder  1.81575 5.0276 14.4504
RightArm  -26.1825 36.3949 52.9712
RightForeArm  3.97513 32.8143 6.94301
RightHand  -2.52611 9.93868 -19.3049
LeftUpLeg  11.5439 -1.15756 -9.84789
LeftLeg  23.8267 4.19316 2.81858
LeftFoot  -1.11515 0.415978 -4.64688
LeftToes  -3.13779e-010 -2.47553e-011 -5.36621e-011
316
root  -5.59484 38.6366 0.962083 -156.881 -80.5597 155.737
RightUpLeg  -32.8152 4.32778 2.80486
RightLeg  37.6684 -3.55001 -3.19703
RightFoot  13.9577 -3.3632 15.0128
RightToes  7.56698e-010 0 -3.6325e-017
Spine  8.03194 -2.80181 -5.19856
Spine1  2.08843 -5.61281 12.2469
HEad  -6.05519 3.23479 -19.17
LeftShoulder1  2.42999 -7.05162 -16.2903
LeftArm  -42.9998 -27.6219 -34.0016
LeftForeArm  157.78 -61.0412 -161.137
LeftHand  -0.462415 2.99467 22.1596
RightShoulder  1.98879 5.2602 16.0056
RightArm  -25.6151 34.6795 55.3583
RightForeArm  9.26564 47.0928 11.501
RightHand  -2.23848 9.1278 -18.0857
LeftUpLeg  16.4827 3.37369 -8.26593
LeftLeg  19.5057 -3.0974 0.551694
LeftFoot  -7.49427 0.189629 -4.32429
LeftToes  -3.13779e-010 -2.47553e-011 -5.36621e-011
317
root  -5.80362 37.2335 0.969787 -144.347 -81.3591 142.728
RightUpLeg  -33.0489 3.41525 3.25484
RightLeg  41.0698 -5.06138 -5.00983
RightFoot  6.03784 -0.37183 2.50032
RightToes  7.56698e-010 0 -3.6325e-017
Spine  7.413 -3.6312 -8.1559
Spine1  2.41606 -7.31923 14.8198
HEad  -6.26364 6.07728 -19.7755
LeftShoulder1  2.08891 -6.02053 -15.1157
LeftArm  -45.8505 -30.6746 -30.4858
LeftForeArm  160.005 -60.8443 -161.309
LeftHand  -0.3943 3.38308 22.5051
RightShoulder  2.04037 5.14233 16.9957
RightArm  -27.5712 32.8948 57.2367
RightForeArm  18.6743 62.6234 21.0342
RightHand  -1.73218 7.34898 -15.9972
LeftUpLeg  18.8971 1.90503 -8.47045
LeftLeg  20.2073 -9.31922 -2.03761
LeftFoot  -16.9405 0.0089253 -2.49494
LeftToes  -3.13779e-010 -2.47553e-011 -5.36621e-011
318
root  -5.98661 36.0758 1.09019 -143.711 -81.0482 141.561
RightUpLeg  -33.5655 3.92139 4.17025
RightLeg  45.4735 -6.73647 -7.57009
RightFoot  -3.12424 0.403583 -5.2479
RightToes  7.56698e-010 0 -3.6325e-017
Spine  6.51087 -2.6538 -7.2412
Spine1  3.95469 -6.45664 13.8513
HEad  -6.94876 5.40698 -20.7072
LeftShoulder1  2.0029 -5.76817 -14.745
LeftArm  -45.9747 -34.5622 -30.5783
LeftForeArm  160.081 -64.5823 -158.276
LeftHand  -0.405643 3.29288 22.1873
RightShoulder  1.99443 4.75497 17.5949
RightArm  -30.6642 31.6681 56.2964
RightForeArm  37.953 74.8913 41.9369
RightHand  -1.28444 5.40544 -14.0668
LeftUpLeg  19.4422 -2.95632 -12.0089
LeftLeg  23.3256 -5.65806 -1.43713
LeftFoot  -25.6796 0.25418 0.930174
LeftToes  -3.13779e-010 -2.47553e-011 -5.36621e-011
319
root  -6.02323 35.7816 1.20298 -149.062 -81.302 146.452
RightUpLeg  -33.7537 3.73944 5.16475
RightLeg  47.1864 -7.34909 -8.696
RightFoot  -5.70649 0.333533 -7.18685
RightToes  7.56698e-010 0 -3.6325e-017
Spine  6.15493 -1.40925 -5.08904
Spine1  6.10814 -5.20279 12.5472
HEad  -8.58032 4.08242 -22.5666
LeftShoulder1  2.14646 -6.1622 -15.4033
LeftArm  -43.0763 -34.9363 -33.6049
LeftForeArm  154.975 -69.232 -152.647
LeftHand  -0.527552 2.60227 21.7815
RightShoulder  1.99553 4.61891 18.0485
RightArm  -33.1656 30.8556 53.5687
RightForeArm  58.5586 78.7336 64.9843
RightHand  -1.12787 4.30379 -13.7349
LeftUpLeg  18.8375 -5.7498 -14.3016
LeftLeg  26.512 2.14561 1.53558
LeftFoot  -27.9883 0.377508 1.45155
LeftToes  -3.13779e-010 -2.47553e-011 -5.36621e-011
